<?xml version="1.0" encoding="UTF-8" standalone="no"?>
<!-- Generated with myarabesque.com -->
<svg
   xmlns:dc="http://purl.org/dc/elements/1.1/"
   xmlns:cc="http://creativecommons.org/ns#"
   xmlns:rdf="http://www.w3.org/1999/02/22-rdf-syntax-ns#"
   xmlns:svg="http://www.w3.org/2000/svg"
   xmlns="http://www.w3.org/2000/svg"
   width="60"
   height="60"
   viewBox="0 0 200 200"
   id="svg6207"
   version="1.1">
  <defs
     id="defs6209" />
  <metadata
     id="metadata6212">
    <rdf:RDF>
      <cc:Work
         rdf:about="">
        <dc:format>image/svg+xml</dc:format>
        <dc:type
           rdf:resource="http://purl.org/dc/dcmitype/StillImage" />
        <dc:title></dc:title>
      </cc:Work>
    </rdf:RDF>
  </metadata>
  <path
     style="fill:#ffffff;fill-opacity:1"
     d="m 0,0 200,0 0,199.99996 -200,0 z"
     id="rect5288" />
  <g
     style="fill:#dadada;fill-opacity:1"
     id="g4188">
    <path
       style="fill:#dadada;fill-opacity:1"
       d="m 196.68747,140.40779 -11.58187,11.59707 -25.35955,-25.39277 -33.5469,0 0,33.59077 25.35955,25.3928 -11.58188,11.597 -16.37372,0 0,-36.1903 -23.56297,-23.59376 -23.56299,23.59376 0,36.1903 -16.37371,0 -11.58188,-11.597 25.35955,-25.3928 0,-33.59077 -33.54691,0 -25.35954,25.39277 -11.58188,-11.59707 0,-16.39513 36.14295,0 24.16184,-24.19346 -24.16184,-24.19345 -36.14295,0 0,-16.39514 11.58188,-11.59702 25.35954,25.39273 33.54691,0 0,-33.5908 -25.35955,-25.39273 11.58188,-11.59703 16.37371,0 0,36.19024 23.56299,23.59381 23.56297,-23.59381 0,-36.19024 16.37372,0 11.58188,11.59703 -25.35955,25.39273 0,33.5908 33.5469,0 25.35955,-25.39273 11.58187,11.59702 0,16.39514 -36.14294,0 -24.16184,24.19345 24.16184,24.19346 36.14294,0 0,16.39513 z"
       id="path4902" />
    <g
       id="g4551"
       style="fill:#dadada;fill-opacity:1"
       transform="matrix(1.003107,0,0,1.0044194,-419.32052,-566.54279)">
      <path
         id="path4914"
         d="m 587.82,614.07 -14.134,14.134 -21.3,0 0,-21.101 14.134,-14.134 21.3,0 0,21.101 z"
         style="fill:#dadada;fill-opacity:1" />
      <path
         id="path4912"
         d="m 533.08,598.69 -15.328,15.328 -15.328,-15.328 0,-19.11 15.328,-15.328 15.328,15.328 0,19.11 z"
         style="fill:#dadada;fill-opacity:1" />
      <path
         id="path4910"
         d="m 617.2,663.43 -15.328,15.328 -19.11,0 -15.328,-15.328 15.328,-15.328 19.11,0 15.328,15.328 z"
         style="fill:#dadada;fill-opacity:1" />
      <path
         id="path4904"
         d="m 483.12,628.2 -21.3,0 -14.134,-14.134 0,-21.101 21.3,0 14.134,14.134 0,21.101 z"
         style="fill:#dadada;fill-opacity:1" />
      <path
         id="path4900"
         d="m 587.82,733.9 -21.3,0 -14.134,-14.134 0,-21.101 21.3,0 14.134,14.134 0,21.101 z"
         style="fill:#dadada;fill-opacity:1" />
      <path
         id="path4894"
         d="m 533.08,747.64 -15.328,15.328 -15.328,-15.328 0,-19.11 15.328,-15.328 15.328,15.328 0,19.11 z"
         style="fill:#dadada;fill-opacity:1" />
      <path
         id="path4892"
         d="m 467.99,663.43 -15.328,15.328 -19.11,0 -15.328,-15.328 15.328,-15.328 19.11,0 15.328,15.328 z"
         style="fill:#dadada;fill-opacity:1" />
      <path
         id="path4890"
         d="m 483.12,719.77 -14.134,14.134 -21.3,0 0,-21.101 14.134,-14.134 21.3,0 0,21.101 z"
         style="fill:#dadada;fill-opacity:1" />
    </g>
    <g
       id="g4561"
       style="fill:#dadada;fill-opacity:1"
       transform="matrix(1.003107,0,0,1.0044194,-419.32052,-566.54279)">
      <path
         id="path4918"
         d="m 609.72,566.49 -21.101,21.101 -8.5598,-8.5598 0,-12.541 29.661,0 z"
         style="fill:#dadada;fill-opacity:1" />
      <path
         id="path4916"
         d="m 614.1,600.93 -12.143,0 -8.7589,-8.7588 20.902,-20.902 0,29.661 z"
         style="fill:#dadada;fill-opacity:1" />
      <path
         id="path4908"
         d="m 455.45,579.03 -8.5598,8.5598 -21.101,-21.101 29.661,0 0,12.541 z"
         style="fill:#dadada;fill-opacity:1" />
      <path
         id="path4906"
         d="m 614.1,755.6 -20.902,-20.902 8.7589,-8.7588 12.143,0 0,29.661 z"
         style="fill:#dadada;fill-opacity:1" />
      <path
         id="path4898"
         d="m 442.31,592.17 -8.7588,8.7588 -12.143,0 0,-29.661 20.902,20.902 z"
         style="fill:#dadada;fill-opacity:1" />
      <path
         id="path4896"
         d="m 609.72,760.38 -29.661,0 0,-12.541 8.5598,-8.5598 21.101,21.101 z"
         style="fill:#dadada;fill-opacity:1" />
      <path
         id="path4888"
         d="m 442.31,734.7 -20.902,20.902 0,-29.661 12.143,0 8.7588,8.7588 z"
         style="fill:#dadada;fill-opacity:1" />
      <path
         id="path4886"
         d="m 455.45,760.38 -29.661,0 21.101,-21.101 8.5598,8.5598 0,12.541 z"
         style="fill:#dadada;fill-opacity:1" />
    </g>
  </g>
  <path
     id="path4860"
     d="m 133.98326,99.8192 -10.38316,-10.39674 0,-13.7957 -13.77768,0 -9.7845,-9.79731 -9.7844,9.79731 -13.77769,0 0,13.7957 -10.38315,10.39674 10.38315,10.39675 0,13.7957 13.77769,0 9.7844,9.79731 9.7845,-9.79731 13.77768,0 0,-13.7957 10.38316,-10.39675 z"
     style="fill:#ffffff;fill-opacity:1" />
  <g
     transform="matrix(1.003107,0,0,1.0044194,-419.32052,-566.54279)"
     style="fill:#fde8fd;fill-opacity:1"
     id="g4541">
    <path
       style="fill:#fde8fd;fill-opacity:1"
       d="m 539.65,635.17 0,-25.082 -17.717,17.717 7.3653,7.3654 10.351,0 z"
       id="path4876" />
    <path
       style="fill:#fde8fd;fill-opacity:1"
       d="m 570.5,640.94 -25.082,0 0,10.351 7.3654,7.3654 17.717,-17.717 z"
       id="path4874" />
    <path
       style="fill:#fde8fd;fill-opacity:1"
       d="m 513.57,627.8 -17.717,-17.717 0,25.082 10.351,0 7.3654,-7.3654 z"
       id="path4868" />
    <path
       style="fill:#fde8fd;fill-opacity:1"
       d="m 570.5,685.93 -17.717,-17.717 -7.3654,7.3654 0,10.351 25.082,0 z"
       id="path4866" />
    <path
       style="fill:#fde8fd;fill-opacity:1"
       d="m 490.08,651.29 0,-10.351 -25.082,0 17.717,17.717 7.3654,-7.3654 z"
       id="path4854" />
    <path
       style="fill:#fde8fd;fill-opacity:1"
       d="m 539.65,716.78 0,-25.082 -10.351,0 -7.3653,7.3654 17.717,17.717 z"
       id="path4852" />
    <path
       style="fill:#fde8fd;fill-opacity:1"
       d="m 513.57,699.07 -7.3654,-7.3654 -10.351,0 0,25.082 17.717,-17.717 z"
       id="path4846" />
    <path
       style="fill:#fde8fd;fill-opacity:1"
       d="m 490.08,685.93 0,-10.351 -7.3654,-7.3654 -17.717,17.717 25.082,0 z"
       id="path4844" />
  </g>
  <g
     transform="matrix(1.003107,0,0,1.0044194,-419.32052,-566.54279)"
     style="fill:#e0f3ff;fill-opacity:1"
     id="g4531">
    <path
       d="m 563.14,578.04 -7.3653,-7.3654 -10.351,0 0,25.082 17.717,-17.717 z"
       id="path4880"
       style="fill:#e0f3ff;fill-opacity:1" />
    <path
       d="m 609.92,635.17 0,-10.152 -7.3653,-7.3654 -17.518,17.518 24.883,0 z"
       id="path4878"
       style="fill:#e0f3ff;fill-opacity:1" />
    <path
       d="m 490.08,595.75 0,-25.082 -10.351,0 -7.3654,7.3654 17.717,17.717 z"
       id="path4872"
       style="fill:#e0f3ff;fill-opacity:1" />
    <path
       d="m 609.92,701.85 0,-10.152 -24.883,0 17.518,17.518 7.3653,-7.3654 z"
       id="path4870"
       style="fill:#e0f3ff;fill-opacity:1" />
    <path
       d="m 450.47,635.17 -17.518,-17.518 -7.3654,7.3654 0,10.152 24.883,0 z"
       id="path4850"
       style="fill:#e0f3ff;fill-opacity:1" />
    <path
       d="m 563.14,748.83 -17.717,-17.717 0,25.082 10.351,0 7.3653,-7.3654 z"
       id="path4848"
       style="fill:#e0f3ff;fill-opacity:1" />
    <path
       d="m 450.47,691.7 -24.883,0 0,10.152 7.3654,7.3654 17.518,-17.518 z"
       id="path4842"
       style="fill:#e0f3ff;fill-opacity:1" />
    <path
       d="m 490.08,756.2 0,-25.082 -17.717,17.717 7.3654,7.3654 10.351,0 z"
       id="path4840"
       style="fill:#e0f3ff;fill-opacity:1" />
  </g>
  <g
     style="fill:#e0f6f6;fill-opacity:1"
     id="g4209">
    <path
       id="path4884"
       d="m 182.31296,6.64926 -15.57525,0 0,6.79811 4.39311,4.39875 11.18263,-11.19727 z"
       style="fill:#e0f6f6;fill-opacity:1" />
    <path
       id="path4882"
       d="m 192.49449,33.0454 0,-15.7955 -10.98202,10.99739 4.79235,4.79861 6.19017,0 z"
       style="fill:#e0f6f6;fill-opacity:1" />
    <path
       d="m 33.35157,13.44918 0,-6.79812 -15.57524,0 11.18263,11.19727 4.39301,-4.39875 z"
       id="path4864"
       style="fill:#e0f6f6;fill-opacity:1" />
    <path
       style="fill:#e0f6f6;fill-opacity:1"
       d="m 192.49449,182.40256 0,-15.7955 -6.19017,0 -4.79235,4.7986 10.98201,10.9974 z"
       id="path4862" />
    <path
       d="M 18.56577,28.24427 7.58275,17.24689 l 0,15.7955 6.19017,0 4.79245,-4.79862 z"
       id="path4858"
       style="fill:#e0f6f6;fill-opacity:1" />
    <path
       style="fill:#e0f6f6;fill-opacity:1"
       d="m 182.31296,192.99916 -11.18265,-11.1972 -4.3931,4.3987 0,6.7981 15.57524,0 z"
       id="path4856" />
    <path
       style="fill:#e0f6f6;fill-opacity:1"
       d="m 18.56577,171.40416 -4.79245,-4.7986 -6.19016,0 0,15.7955 10.98301,-10.9974 z"
       id="path4838" />
    <path
       style="fill:#e0f6f6;fill-opacity:1"
       d="m 33.35157,192.99916 0,-6.7981 -4.39301,-4.3987 -11.18264,11.1972 15.57525,0 z"
       id="path3639" />
  </g>
  <g
     transform="matrix(1.003107,0,0,1.0044194,-419.32052,-566.54279)"
     style="fill:#ececff;fill-opacity:1"
     id="g4521">
    <path
       style="fill:#ececff;fill-opacity:1"
       d="m 478.12,623.96 -15.447,0 -10.25,-10.752 0,-16.052 15.447,0 10.25,10.752 0,16.052 z"
       id="path4904-1" />
    <path
       style="fill:#ececff;fill-opacity:1"
       d="m 582.84,729.82 -15.447,0 -10.25,-10.752 0,-16.052 15.447,0 10.25,10.752 0,16.052 z"
       id="path4904-1-3" />
    <path
       style="fill:#ececff;fill-opacity:1"
       d="m 557.12,624.24 15.447,0 10.25,-10.752 0,-16.052 -15.447,0 -10.25,10.752 0,16.052 z"
       id="path4904-1-7" />
    <path
       style="fill:#ececff;fill-opacity:1"
       d="m 452.27,730.07 15.447,0 10.25,-10.752 0,-16.052 -15.447,0 -10.25,10.752 0,16.052 z"
       id="path4904-1-34" />
    <path
       style="fill:#ececff;fill-opacity:1"
       d="m 529.36,596.42 -11.576,11.576 -11.576,-11.576 0,-14.432 11.576,-11.576 11.576,11.576 0,14.432 z"
       id="path4912-3" />
    <path
       style="fill:#ececff;fill-opacity:1"
       d="m 529.4,745.34 -11.576,11.576 -11.576,-11.576 0,-14.432 11.576,-11.576 11.576,11.576 0,14.432 z"
       id="path4912-3-5" />
    <path
       style="fill:#ececff;fill-opacity:1"
       d="m 435.83,675.1 -11.576,-11.576 11.576,-11.576 14.432,0 11.576,11.576 -11.576,11.576 -14.432,0 z"
       id="path4912-3-2" />
    <path
       style="fill:#ececff;fill-opacity:1"
       d="m 585.21,675.1 -11.576,-11.576 11.576,-11.576 14.432,0 11.576,11.576 -11.576,11.576 -14.432,0 z"
       id="path4912-3-0" />
  </g>
</svg>